<?xml version="1.0" standalone="no"?>
<!DOCTYPE svg PUBLIC "-//W3C//DTD SVG 20010904//EN"
 "http://www.w3.org/TR/2001/REC-SVG-20010904/DTD/svg10.dtd">
<svg version="1.0" xmlns="http://www.w3.org/2000/svg"
 width="490.000000pt" height="509.000000pt" viewBox="0 0 490.000000 509.000000"
 preserveAspectRatio="xMidYMid meet">

<g transform="translate(0.000000,509.000000) scale(0.100000,-0.100000)"
fill="#000000" stroke="none">
<path d="M2940 4646 c0 -2 21 -16 48 -31 187 -108 391 -315 532 -540 287 -459
317 -1107 73 -1565 -184 -345 -451 -575 -802 -690 -685 -225 -1426 138 -1651
808 -135 404 -33 861 252 1127 158 148 347 235 551 254 291 27 564 -81 731
-290 175 -219 214 -525 98 -754 -35 -70 -154 -185 -224 -218 -204 -96 -423
-36 -510 141 -35 71 -33 190 4 253 15 25 45 58 68 74 73 51 87 92 51 151 -28
46 -94 74 -172 74 -209 0 -364 -219 -346 -488 18 -280 234 -525 537 -608 104
-29 281 -24 395 10 144 43 244 105 360 221 154 154 228 304 262 532 28 191 -5
433 -83 602 -83 180 -234 356 -401 468 -404 270 -940 269 -1361 -1 -429 -275
-663 -744 -636 -1276 12 -239 59 -418 166 -635 178 -357 530 -663 911 -790
361 -120 822 -119 1162 2 142 51 349 165 493 272 292 217 528 585 626 976 33
132 48 303 43 485 -11 342 -90 613 -249 848 -55 81 -181 234 -224 272 -195
169 -366 262 -552 301 -88 18 -152 24 -152 15z"/>
<path d="M1710 1196 c-321 -89 -418 -512 -170 -739 168 -153 403 -154 579 0
62 54 117 160 132 252 27 172 -59 360 -206 446 -85 51 -234 69 -335 41z"/>
<path d="M2875 1196 c-228 -57 -364 -296 -301 -531 53 -200 241 -337 441 -322
83 6 139 27 216 78 301 202 210 697 -143 779 -57 13 -151 11 -213 -4z"/>
</g>
</svg>
